<svg xmlns="http://www.w3.org/2000/svg" viewBox="0 0 24 24" id="gulp"><path fill="#CF4547" d="M6.396 12.242c-.572.834-1.055 5.142-2.01 5.142-.958 0 .14-2.734.445-3.677-3.592 4.006-6.04 1.824-4.184-3.275C2.091 6.461 5.73 2.637 8.01 6.065c.31.453.188 1.339-.377 1.339-.65 0-.686-1.496-1.727-1.496-2.035 0-5.122 6.207-4.281 8.105.632 1.445 3.267-1.531 3.74-2.53.411-1.135.568-2.519 1.395-2.24.783.268-.097 2.22-.364 2.999zm7.922 1.459c-1.363 1.832-4.066 3.18-3.424.282-.991 1.762-3.575 2.446-3.575.581.215-1.372.8-2.714 1.401-3.966.262-.563.723-.632 1.036-.421.613.419-.516 1.346-1.018 3.148-.068.244-.168.683-.044.905.147.26.728.031.986-.156 1.514-1.091 1.892-3.33 2.332-3.847a.452.452 0 0 1 .704.007c.296.385.067.794-.446 1.957-.261.593-.947 2.285-.302 2.285.721 0 1.845-1.1 2.287-1.786l.063 1.011z"></path><path fill="#CF4547" d="M14.513 13.329c-.849 2.09 1.117.614 2.577-.863.255-.266.722.009.439.633-.108.238-2.153 2.567-3.512 2.567-1.847 0-.364-3.108.27-4.702 1.691-4.17 2.018-5.935 2.95-5.202.498.391-.009.575-2.724 7.567z"></path><path fill="#CF4547" d="M23.415 11.981c.725-.495.745.623.245 1.019-1.221 1.082-1.516 1.417-2.195 1.931-1.151.87-2.868 1.097-2.868-.041.023-1.026 2.149-2.726 2.149-3.386 0-.528-1.974-.458-4.077 5.072-.467 1.236-.96 3.269-1.926 2.575-.549-.402.459-2.038 1.577-4.576 1.041-2.353 1.494-4.973 2.321-4.13.2.204.064.843-.012 1.03 2.099-2.293 3.921-1.361 3.238.175-.389.875-1.114 1.643-1.791 2.441-.348.412-.053.594.393.339.593-.34 2.342-1.909 2.946-2.449z"></path></svg>