<svg xmlns="http://www.w3.org/2000/svg" version="1.1" xmlns:xlink="http://www.w3.org/1999/xlink" xmlns:svgjs="http://svgjs.com/svgjs" width="512" height="512" x="0" y="0" viewBox="0 0 512 512" style="enable-background:new 0 0 512 512" xml:space="preserve"><g><path fill="#3C5959" d="M488.098 327.709c-10.978-40.912-37.896-112.209-98.222-153.018-24.466-16.551-39.036-44.218-38.065-73.74.045-1.373.082-2.611.097-3.711.707-52.283-41.308-95.974-93.581-97.212-55.427-1.313-100.342 44.353-98.17 99.712l.03.787c1.064 29.751-13.768 57.651-38.391 74.384-60.094 40.836-86.935 111.96-97.894 152.801-2.914 10.859 9.493 19.309 18.549 12.648l50.031-36.799a167.239 167.239 0 0 0-2.95 31.292c-.001 91.954 73.873 166.121 165.826 166.468 92.232.348 167.109-74.315 167.109-166.467 0-10.7-1.028-21.158-2.958-31.297l50.039 36.803c9.06 6.663 21.464-1.79 18.55-12.651z" data-original="#3c5959"></path><path fill="#394949" d="M402.433 293.196c-9.89-5.232-21.724 2.296-21.155 13.47.562 11.027.852 22.502.852 28.188 0 85.114-63.88 155.304-146.311 165.254a169.46 169.46 0 0 0 19.539 1.212c92.232.348 167.11-74.315 167.11-166.467 0-10.7-1.028-21.158-2.958-31.297-5.737-4.016-11.629-7.479-17.077-10.36zM488.098 327.709c-10.978-40.912-37.896-112.209-98.222-153.018-24.465-16.551-39.036-44.218-38.065-73.74.045-1.373.083-2.611.097-3.711.707-52.283-41.308-95.974-93.581-97.212a96.462 96.462 0 0 0-22.561 2.11c43.693 9.418 76.43 48.902 75.805 95.102-.012.91-.04 1.913-.075 3.009-.941 29.7 13.462 57.808 38.071 74.463 58.278 39.441 85.366 107.33 97.027 148.767l22.954 16.883c9.06 6.661 21.464-1.792 18.55-12.653z" data-original="#394949"></path><path fill="#FCF5EB" d="M256 227.573c-69.399 0-125.657 81.283-125.657 181.551 0 13.128.973 25.926 2.805 38.263 30.254 33.029 73.714 53.751 122.211 53.934 48.921.184 92.958-20.736 123.53-54.174a260.653 260.653 0 0 0 2.769-38.023C381.657 308.856 325.399 227.573 256 227.573z" data-original="#fcf5eb"></path><path fill="#FBE7C5" d="M381.657 409.123c0-13.742-1.063-27.125-3.066-39.993-14.458 69.068-71.721 122.402-142.772 130.978a169.46 169.46 0 0 0 19.539 1.212c48.92.184 92.956-20.736 123.528-54.173l.002-.002a260.63 260.63 0 0 0 2.769-38.022z" data-original="#fbe7c5"></path><path fill="#FBA615" d="m233.228 114.517-22.06 9.057c-9.516 3.907-11.899 16.293-4.512 23.452l39.411 38.19c5.535 5.363 14.329 5.363 19.864 0l39.411-38.19c7.388-7.159 5.005-19.545-4.512-23.452l-22.06-9.057a59.956 59.956 0 0 0-45.542 0z" data-original="#fba615"></path><path fill="#FFFFFF" d="M200.079 102.981a7.726 7.726 0 0 1-7.726-7.726v-7.683c0-14.617 11.892-26.509 26.509-26.509 13.733 0 25.06 10.498 26.381 23.889.084.458.128.929.128 1.41v1.209a7.726 7.726 0 1 1-15.452 0c0-6.097-4.96-11.056-11.056-11.056s-11.056 4.96-11.056 11.056v7.683a7.728 7.728 0 0 1-7.728 7.727zM311.921 102.981a7.725 7.725 0 0 1-7.726-7.726v-7.683c0-6.097-4.96-11.056-11.056-11.056s-11.055 4.96-11.055 11.056a7.726 7.726 0 1 1-15.452 0v-1.209c0-.482.044-.953.129-1.41 1.32-13.391 12.647-23.889 26.379-23.889 14.617 0 26.509 11.892 26.509 26.509v7.683a7.729 7.729 0 0 1-7.728 7.725z" data-original="#ffffff"></path><path fill="#FA9801" d="M194.138 484.427c0 15.228-24.664 27.573-55.088 27.573s-55.088-12.345-55.088-27.573 24.664-58.157 55.088-58.157 55.088 42.929 55.088 58.157zM428.038 484.427c0 15.228-24.664 27.573-55.088 27.573s-55.088-12.345-55.088-27.573 24.664-58.157 55.088-58.157c30.424.001 55.088 42.929 55.088 58.157z" data-original="#fa9801"></path><g fill="#F88604"><path d="M372.95 426.271c-6.765 0-13.243 2.126-19.23 5.594 20.478 7.744 34.981 30.053 34.991 78.984 22.742-3.394 39.328-13.935 39.328-26.421-.001-15.229-24.665-58.157-55.089-58.157zM139.05 426.271c-6.765 0-13.243 2.126-19.23 5.594 20.478 7.744 34.981 30.053 34.991 78.984 22.742-3.394 39.328-13.935 39.328-26.421-.001-15.229-24.665-58.157-55.089-58.157z" fill="#F88604" data-original="#f88604"></path></g></g></svg>