<svg width="30" height="40" viewBox="0 0 30 40" fill="none" xmlns="http://www.w3.org/2000/svg">
<circle cx="15" cy="15" r="15" fill="black"/>
<path d="M13.2592 36.3866C14.025 37.7403 15.975 37.7403 16.7408 36.3866L26.302 19.4847C27.0562 18.1515 26.093 16.5 24.5612 16.5H5.43882C3.90702 16.5 2.94384 18.1515 3.69804 19.4847L13.2592 36.3866Z" fill="black"/>
<path d="M13.6845 24.5595L13.5928 18.9373M13.5928 18.9373C13.2741 16.7031 16.7839 12.837 21.5373 12.6429C21.84 17.1164 18.8533 20.597 14.8762 20.7401M13.5928 18.9373C12.7624 16.6657 10.5951 15.2807 7.94005 15.4234C7.79065 17.7492 9.08759 20.2268 12.6456 20.7401" stroke="#CFE741" stroke-width="1.5" stroke-linecap="round"/>
<circle cx="15" cy="15" r="10.25" stroke="#CFE741" stroke-width="1.5"/>
</svg>
