<?xml version="1.0" encoding="utf-8"?><svg viewBox="0 0 1934.4 2000" xmlns="http://www.w3.org/2000/svg" xmlns:xlink="http://www.w3.org/1999/xlink"><style>:root>svg{display:none}:root>svg:target{display:block}</style><svg viewBox="0 0 1024 1024" id="bitrix24" xmlns="http://www.w3.org/2000/svg"><circle cx="512" cy="512" r="512"/><path d="M877 499.07h-22v-22h-5.91V505H877zM852.07 543A43.93 43.93 0 11896 499.07 44.17 44.17 0 01852.07 543zm0-79.83a35.9 35.9 0 1035.9 35.9 35.87 35.87 0 00-35.9-35.9zm-84.48 59.56v-70.12h-14.78l-56.18 73.07v13.94h50.69v27.88h20.27v-27.88h16.9v-16.9zm-20.27-16.47v16.04H733.8c-4.22 0-11.83.42-14.36.42l28.72-38.86c0 3.38-.84 13.52-.84 22.39zm-132.21 60.82h79v-17.32h-52.39c7.18-28.72 51.11-35.06 51.11-67.16 0-17.32-11.83-30-36.33-30a85.18 85.18 0 00-38 9.29L624 478c8.45-3.8 17.74-7.6 29.14-7.6 9.29 0 17.74 3.8 17.74 14.36.41 23.6-51.12 25.29-55.77 82.32zm-76.45-46.89l-33.79-46.46h24.5l22 30.41 22.39-30.41h24.5L564 520.19l34.64 46.89h-24.5l-22.39-31.26-22.81 31.26h-24.5zm-73.92-75.61a14.36 14.36 0 0128.72 0c0 7.6-6.34 13.94-14.78 13.94s-13.94-5.91-13.94-13.94zm2.53 29.14h23.65v93.35h-23.64zm-73.5 0h20.27l2.53 10.56c8.45-8.45 16.05-12.67 25.77-12.67a24.76 24.76 0 0113.09 3.8L447 495.27a20.08 20.08 0 00-10.56-3c-6.34 0-11.4 2.53-19 9.29v65.94h-23.66zm-124.6-29.14a14.24 14.24 0 0114.36-14.36c8 0 14.78 5.91 14.78 14.36 0 7.6-6.34 13.94-14.78 13.94s-14.36-5.91-14.36-13.94zm2.53 29.14h23.65v93.35h-23.64zm55.3 70.55v-52h-16.9v-18.54H327v-21.54l23.65-6.76v28.3H379l-5.91 18.59H350.7v46c0 8.87 3 11.83 9.29 11.83a26.42 26.42 0 0014.36-4.65l7.18 16.05c-6.76 4.65-18.16 7.18-27.46 7.18-16.89.46-27.07-8.84-27.07-24.46zM164 437h38c27.88 0 40.55 16.05 40.55 32.95 0 11.4-5.49 21.54-15.63 27v.42c15.21 3.8 24.5 16.05 24.5 31.26 0 20.27-15.21 38.44-45.62 38.44H164zm35.06 54.49c13.09 0 20.27-7.18 20.27-17.32 0-9.71-6.34-17.32-20.27-17.32h-11v34.64zm3.8 56.18c15.63 0 24.5-5.91 24.5-19 0-11-8.45-17.74-21.54-17.74h-17.74v36.75z"/></svg><svg viewBox="0 0 60 60" id="code" xmlns="http://www.w3.org/2000/svg"><clipPath id="ba"><path d="M0 0h60v60H0z" data-original="#000000"/></clipPath><g clip-path="url(#ba)"><path d="M14 44a2.976 2.976 0 01-2.122-.88L.879 32.121C.313 31.557 0 30.803 0 30s.313-1.557.88-2.122l10.999-10.999A2.975 2.975 0 0114 16c1.654 0 3 1.346 3 3 0 .803-.313 1.557-.88 2.122L7.242 30l8.879 8.879c.567.564.879 1.318.879 2.121 0 1.654-1.346 3-3 3zm32 1c-1.654 0-3-1.346-3-3 0-.803.313-1.557.88-2.122L52.758 31l-8.879-8.879A2.982 2.982 0 0143 20c0-1.654 1.346-3 3-3 .803 0 1.557.313 2.122.88l10.999 10.999c.567.566.879 1.32.879 2.121 0 .803-.313 1.557-.88 2.122L48.121 44.121A2.971 2.971 0 0146 45zm-25 8a3.004 3.004 0 01-2.77-4.155L36.231 8.843A2.997 2.997 0 0139 7a3.004 3.004 0 012.77 4.155L23.769 51.157A2.997 2.997 0 0121 53z" data-original="#000000"/></g></svg><svg viewBox="0 0 512 512" id="css" xmlns="http://www.w3.org/2000/svg"><path d="M32 0l40.8 460.8L256 512l183.136-51.168L480 0z" data-original="#2196f3"/><path d="M392.768 150.688l-5.152 57.888-15.552 173.536L256 414.208l-.096.032-116-32.128-8.096-90.752h56.832l4.224 47.072 63.072 17.024.032-.032 63.168-17.024 8.608-78.432-198.656.544-5.632-53.632 209.056-2.464 4.224-57.408-218.88.608-3.68-53.408h283.648z" data-original="#fafafa"/></svg><svg viewBox="0 0 512 512" id="figma" xmlns="http://www.w3.org/2000/svg"><path d="M256.599 256c0-47.128 38.205-85.333 85.333-85.333s85.333 38.206 85.333 85.333c0 47.129-38.206 85.333-85.333 85.333-47.129 0-85.333-38.205-85.333-85.333z" data-original="#00bcff"/><path d="M85.932 426.667c0-47.128 38.205-85.333 85.333-85.333l45.475-24.009 39.858 24.009v85.333c0 47.129-38.205 85.333-85.333 85.333s-85.333-38.205-85.333-85.333z" data-original="#00cf7f"/><path d="M256.599 0l-46.434 80.67 46.434 89.996h84.136c47.129 0 85.333-38.205 85.333-85.333S387.863 0 340.735 0z" data-original="#ff7361"/><path d="M84.734 85.333c0 47.128 38.205 85.333 85.333 85.333l45.267 17.484 41.263-17.484V0h-86.531c-47.127 0-85.332 38.205-85.332 85.333z" data-original="#ff4d12"/><path d="M85.932 256c0 47.129 38.205 85.333 85.333 85.333h85.333V170.666h-85.333c-47.128 0-85.333 38.206-85.333 85.334z" data-original="#b659ff"/></svg><svg viewBox="0 0 24 24" id="git" xmlns="http://www.w3.org/2000/svg"><path d="M12 .5C5.37.5 0 5.78 0 12.292c0 5.211 3.438 9.63 8.205 11.188.6.111.82-.254.82-.567 0-.28-.01-1.022-.015-2.005-3.338.711-4.042-1.582-4.042-1.582-.546-1.361-1.335-1.725-1.335-1.725-1.087-.731.084-.716.084-.716 1.205.082 1.838 1.215 1.838 1.215 1.07 1.803 2.809 1.282 3.495.981.108-.763.417-1.282.76-1.577-2.665-.295-5.466-1.309-5.466-5.827 0-1.287.465-2.339 1.235-3.164-.135-.298-.54-1.497.105-3.121 0 0 1.005-.316 3.3 1.209.96-.262 1.98-.392 3-.398 1.02.006 2.04.136 3 .398 2.28-1.525 3.285-1.209 3.285-1.209.645 1.624.24 2.823.12 3.121.765.825 1.23 1.877 1.23 3.164 0 4.53-2.805 5.527-5.475 5.817.42.354.81 1.077.81 2.182 0 1.578-.015 2.846-.015 3.229 0 .309.21.678.825.56C20.565 21.917 24 17.495 24 12.292 24 5.78 18.627.5 12 .5z" data-original="#212121"/></svg><svg viewBox="0 0 24 24" id="gulp" xmlns="http://www.w3.org/2000/svg"><path d="M6.396 12.242c-.572.834-1.055 5.142-2.01 5.142-.958 0 .14-2.734.445-3.677-3.592 4.006-6.04 1.824-4.184-3.275C2.091 6.461 5.73 2.637 8.01 6.065c.31.453.188 1.339-.377 1.339-.65 0-.686-1.496-1.727-1.496-2.035 0-5.122 6.207-4.281 8.105.632 1.445 3.267-1.531 3.74-2.53.411-1.135.568-2.519 1.395-2.24.783.268-.097 2.22-.364 2.999zm7.922 1.459c-1.363 1.832-4.066 3.18-3.424.282-.991 1.762-3.575 2.446-3.575.581.215-1.372.8-2.714 1.401-3.966.262-.563.723-.632 1.036-.421.613.419-.516 1.346-1.018 3.148-.068.244-.168.683-.044.905.147.26.728.031.986-.156 1.514-1.091 1.892-3.33 2.332-3.847a.452.452 0 01.704.007c.296.385.067.794-.446 1.957-.261.593-.947 2.285-.302 2.285.721 0 1.845-1.1 2.287-1.786l.063 1.011z"/><path d="M14.513 13.329c-.849 2.09 1.117.614 2.577-.863.255-.266.722.009.439.633-.108.238-2.153 2.567-3.512 2.567-1.847 0-.364-3.108.27-4.702 1.691-4.17 2.018-5.935 2.95-5.202.498.391-.009.575-2.724 7.567z"/><path d="M23.415 11.981c.725-.495.745.623.245 1.019-1.221 1.082-1.516 1.417-2.195 1.931-1.151.87-2.868 1.097-2.868-.041.023-1.026 2.149-2.726 2.149-3.386 0-.528-1.974-.458-4.077 5.072-.467 1.236-.96 3.269-1.926 2.575-.549-.402.459-2.038 1.577-4.576 1.041-2.353 1.494-4.973 2.321-4.13.2.204.064.843-.012 1.03 2.099-2.293 3.921-1.361 3.238.175-.389.875-1.114 1.643-1.791 2.441-.348.412-.053.594.393.339.593-.34 2.342-1.909 2.946-2.449z"/></svg><svg viewBox="0 0 434.147 434.147" id="html" xmlns="http://www.w3.org/2000/svg"><path d="M27.336 14.372l28.177 360.474a13.333 13.333 0 009.263 11.67l148.268 47.008c2.622.831 5.437.831 8.059 0l148.268-47.008a13.333 13.333 0 009.263-11.67l28.177-360.474C407.417 6.622 401.292 0 393.519 0H40.629c-7.773 0-13.898 6.622-13.293 14.372zm307.217 111.843H150.918l5.542 51.105h174.099L319.17 323.013l-102.096 32.369-102.096-32.369-5.95-76.116h53.588v37.336l55.89 15 55.556-15 4.31-59.503H107.295L95.937 79.419H338.21l-3.657 46.796z" data-original="#fc490b"/></svg><svg viewBox="0 0 502.664 502.664" id="icon" xmlns="http://www.w3.org/2000/svg"><path d="M153.821 358.226L0 274.337v-46.463l153.821-83.414v54.574L46.636 250.523l107.185 53.431v54.272zm26.273 29.358L282.103 115.08h32.227L212.084 387.584h-31.99zm168.749-29.358v-54.272l107.164-52.999-107.164-52.59v-53.927l153.821 83.522v46.183l-153.821 84.083z"/></svg><svg viewBox="0 0 512 512" id="js" xmlns="http://www.w3.org/2000/svg"><path d="M0 0h512v512H0z" data-original="#ffdf00"/><path d="M343.934 400.002c10.313 16.839 23.731 29.216 47.462 29.216 19.935 0 32.67-9.964 32.67-23.731 0-16.498-13.084-22.341-35.027-31.939l-12.028-5.161c-34.719-14.791-57.783-33.321-57.783-72.493 0-36.084 27.494-63.553 70.461-63.553 30.59 0 52.582 10.646 68.429 38.522l-37.465 24.056c-8.249-14.791-17.148-20.618-30.964-20.618-14.092 0-23.024 8.94-23.024 20.618 0 14.434 8.94 20.277 29.582 29.217l12.028 5.152c40.879 17.53 63.959 35.401 63.959 75.581 0 43.317-34.028 67.048-79.726 67.048-44.682 0-73.549-21.293-87.674-49.201zm-169.96 4.169c7.558 13.41 14.434 24.747 30.964 24.747 15.807 0 25.779-6.185 25.779-30.232V235.089h48.112v164.246c0 49.818-29.208 72.493-71.843 72.493-38.522 0-60.83-19.936-72.176-43.947z" data-original="#000000"/></svg><svg viewBox="0 -0.114 49.742 51.317" id="laravel" xmlns="http://www.w3.org/2000/svg"><path d="M49.626 11.564a.809.809 0 01.028.209v10.972a.8.8 0 01-.402.694l-9.209 5.302V39.25c0 .286-.152.55-.4.694L20.42 51.01c-.044.025-.092.041-.14.058-.018.006-.035.017-.054.022a.805.805 0 01-.41 0c-.022-.006-.042-.018-.063-.026-.044-.016-.09-.03-.132-.054L.402 39.944A.801.801 0 010 39.25V6.334c0-.072.01-.142.028-.21.006-.023.02-.044.028-.067.015-.042.029-.085.051-.124.015-.026.037-.047.055-.071.023-.032.044-.065.071-.093.023-.023.053-.04.079-.06.029-.024.055-.05.088-.069h.001l9.61-5.533a.802.802 0 01.8 0l9.61 5.533h.002c.032.02.059.045.088.068.026.02.055.038.078.06.028.029.048.062.072.094.017.024.04.045.054.071.023.04.036.082.052.124.008.023.022.044.028.068a.809.809 0 01.028.209v20.559l8.008-4.611v-10.51c0-.07.01-.141.028-.208.007-.024.02-.045.028-.068.016-.042.03-.085.052-.124.015-.026.037-.047.054-.071.024-.032.044-.065.072-.093.023-.023.052-.04.078-.06.03-.024.056-.05.088-.069h.001l9.611-5.533a.801.801 0 01.8 0l9.61 5.533c.034.02.06.045.09.068.025.02.054.038.077.06.028.029.048.062.072.094.018.024.04.045.054.071.023.039.036.082.052.124.009.023.022.044.028.068zm-1.574 10.718v-9.124l-3.363 1.936-4.646 2.675v9.124l8.01-4.611zm-9.61 16.505v-9.13l-4.57 2.61-13.05 7.448v9.216zM1.602 7.719v31.068L19.22 48.93v-9.214l-9.204-5.209-.003-.002-.004-.002c-.031-.018-.057-.044-.086-.066-.025-.02-.054-.036-.076-.058l-.002-.003c-.026-.025-.044-.056-.066-.084-.02-.027-.044-.05-.06-.078l-.001-.003c-.018-.03-.029-.066-.042-.1-.013-.03-.03-.058-.038-.09v-.001c-.01-.038-.012-.078-.016-.117-.004-.03-.012-.06-.012-.09V12.33L4.965 9.654 1.602 7.72zm8.81-5.994L2.405 6.334l8.005 4.609 8.006-4.61-8.006-4.608zm4.164 28.764l4.645-2.674V7.719l-3.363 1.936-4.646 2.675v20.096zM39.243 7.164l-8.006 4.609 8.006 4.609 8.005-4.61zm-.801 10.605l-4.646-2.675-3.363-1.936v9.124l4.645 2.674 3.364 1.937zM20.02 38.33l11.743-6.704 5.87-3.35-8-4.606-9.211 5.303-8.395 4.833z"/></svg><svg viewBox="0 0 512 512" id="linux" xmlns="http://www.w3.org/2000/svg"><path d="M488.098 327.709c-10.978-40.912-37.896-112.209-98.222-153.018-24.466-16.551-39.036-44.218-38.065-73.74.045-1.373.082-2.611.097-3.711.707-52.283-41.308-95.974-93.581-97.212-55.427-1.313-100.342 44.353-98.17 99.712l.03.787c1.064 29.751-13.768 57.651-38.391 74.384-60.094 40.836-86.935 111.96-97.894 152.801-2.914 10.859 9.493 19.309 18.549 12.648l50.031-36.799a167.239 167.239 0 00-2.95 31.292c-.001 91.954 73.873 166.121 165.826 166.468 92.232.348 167.109-74.315 167.109-166.467 0-10.7-1.028-21.158-2.958-31.297l50.039 36.803c9.06 6.663 21.464-1.79 18.55-12.651z" data-original="#3c5959"/><path d="M402.433 293.196c-9.89-5.232-21.724 2.296-21.155 13.47.562 11.027.852 22.502.852 28.188 0 85.114-63.88 155.304-146.311 165.254a169.46 169.46 0 0019.539 1.212c92.232.348 167.11-74.315 167.11-166.467 0-10.7-1.028-21.158-2.958-31.297-5.737-4.016-11.629-7.479-17.077-10.36zm85.665 34.513c-10.978-40.912-37.896-112.209-98.222-153.018-24.465-16.551-39.036-44.218-38.065-73.74.045-1.373.083-2.611.097-3.711.707-52.283-41.308-95.974-93.581-97.212a96.462 96.462 0 00-22.561 2.11c43.693 9.418 76.43 48.902 75.805 95.102-.012.91-.04 1.913-.075 3.009-.941 29.7 13.462 57.808 38.071 74.463 58.278 39.441 85.366 107.33 97.027 148.767l22.954 16.883c9.06 6.661 21.464-1.792 18.55-12.653z" data-original="#394949"/><path d="M256 227.573c-69.399 0-125.657 81.283-125.657 181.551 0 13.128.973 25.926 2.805 38.263 30.254 33.029 73.714 53.751 122.211 53.934 48.921.184 92.958-20.736 123.53-54.174a260.653 260.653 0 002.769-38.023C381.657 308.856 325.399 227.573 256 227.573z" data-original="#fcf5eb"/><path d="M381.657 409.123c0-13.742-1.063-27.125-3.066-39.993-14.458 69.068-71.721 122.402-142.772 130.978a169.46 169.46 0 0019.539 1.212c48.92.184 92.956-20.736 123.528-54.173l.002-.002a260.63 260.63 0 002.769-38.022z" data-original="#fbe7c5"/><path d="M233.228 114.517l-22.06 9.057c-9.516 3.907-11.899 16.293-4.512 23.452l39.411 38.19c5.535 5.363 14.329 5.363 19.864 0l39.411-38.19c7.388-7.159 5.005-19.545-4.512-23.452l-22.06-9.057a59.956 59.956 0 00-45.542 0z" data-original="#fba615"/><path d="M200.079 102.981a7.726 7.726 0 01-7.726-7.726v-7.683c0-14.617 11.892-26.509 26.509-26.509 13.733 0 25.06 10.498 26.381 23.889.084.458.128.929.128 1.41v1.209a7.726 7.726 0 11-15.452 0c0-6.097-4.96-11.056-11.056-11.056s-11.056 4.96-11.056 11.056v7.683a7.728 7.728 0 01-7.728 7.727zm111.842 0a7.725 7.725 0 01-7.726-7.726v-7.683c0-6.097-4.96-11.056-11.056-11.056s-11.055 4.96-11.055 11.056a7.726 7.726 0 11-15.452 0v-1.209c0-.482.044-.953.129-1.41 1.32-13.391 12.647-23.889 26.379-23.889 14.617 0 26.509 11.892 26.509 26.509v7.683a7.729 7.729 0 01-7.728 7.725z" data-original="#ffffff"/><path d="M194.138 484.427c0 15.228-24.664 27.573-55.088 27.573s-55.088-12.345-55.088-27.573 24.664-58.157 55.088-58.157 55.088 42.929 55.088 58.157zm233.9 0c0 15.228-24.664 27.573-55.088 27.573s-55.088-12.345-55.088-27.573 24.664-58.157 55.088-58.157c30.424.001 55.088 42.929 55.088 58.157z" data-original="#fa9801"/><path d="M372.95 426.271c-6.765 0-13.243 2.126-19.23 5.594 20.478 7.744 34.981 30.053 34.991 78.984 22.742-3.394 39.328-13.935 39.328-26.421-.001-15.229-24.665-58.157-55.089-58.157zm-233.9 0c-6.765 0-13.243 2.126-19.23 5.594 20.478 7.744 34.981 30.053 34.991 78.984 22.742-3.394 39.328-13.935 39.328-26.421-.001-15.229-24.665-58.157-55.089-58.157z" data-original="#f88604"/></svg><svg viewBox="0 0 512 512" id="php" xmlns="http://www.w3.org/2000/svg"><path d="M512 256c0 15.485-1.379 30.647-4.012 45.369C486.578 421.115 381.9 512 256 512c-94.856 0-177.664-51.587-221.884-128.24a254.005 254.005 0 01-25.088-60.155C3.135 302.07 0 279.395 0 256 0 114.615 114.615 0 256 0c116.694 0 215.144 78.075 245.979 184.842C508.5 207.433 512 231.309 512 256z" data-original="#8f9ed1"/><path d="M130.173 178.239H35.892L9.028 323.605a254.005 254.005 0 0025.088 60.155h8.746l10.407-56.299h51.806c63.08 0 80.039-56.633 84.104-84.449 4.075-27.805-16.269-64.773-59.006-64.773zm13.678 69.464c-2.309 15.768-13.96 47.877-49.716 47.877H59.162l15.632-84.605h35.6c34.701 0 35.766 20.961 33.457 36.728zm358.128-62.861c-8.014-4.138-17.565-6.604-28.599-6.604h-94.281L341.117 383.76h44.951l10.407-56.299h51.806c28.056 0 46.989-11.201 59.705-26.091A257.373 257.373 0 00512 256c0-24.691-3.5-48.567-10.021-71.158zm-14.921 62.861c-2.309 15.768-13.96 47.877-49.727 47.877h-34.962l15.632-84.605h35.6c34.701 0 35.766 20.961 33.457 36.728zm-177.82-68.784h-54.597l10.248-55.451h-44.766L182.14 328.984h44.766l21.843-118.186h28.61c18.991 0 31.879 4.07 29.165 21.705-2.713 17.635-18.313 95.636-18.313 95.636h45.444s17.635-86.818 20.348-111.237c2.714-24.418-19.669-37.983-44.765-37.983z" data-original="#f2f2f2"/></svg><svg viewBox="0 0 512 512" id="sql" xmlns="http://www.w3.org/2000/svg"><path d="M128 0c-17.6 0-32 14.4-32 32v448c0 17.6 14.4 32 32 32h320c17.6 0 32-14.4 32-32V128L352 0H128z" data-original="#e2e5e7"/><path d="M384 128h96L352 0v96c0 17.6 14.4 32 32 32z" data-original="#b0b7bd"/><path d="M480 224l-96-96h96z" data-original="#cad1d8"/><path d="M416 416c0 8.8-7.2 16-16 16H48c-8.8 0-16-7.2-16-16V256c0-8.8 7.2-16 16-16h352c8.8 0 16 7.2 16 16v160z" data-original="#f15642"/><path d="M98.128 314.672c2.944-24.832 40.416-29.296 58.064-15.728 8.704 7.024-.496 18.16-8.192 12.528-9.456-6-30.96-8.816-33.648 4.464-3.456 20.992 52.208 8.976 51.296 43.008-.896 32.496-47.968 33.248-65.632 18.672-4.224-3.456-4.096-9.072-1.776-12.544 3.312-3.312 7.024-4.464 11.376-.88 10.496 7.152 37.488 12.528 39.408-5.648-1.648-18.912-54.864-7.536-50.896-43.872zm167.36 54.752l2.048 2.416c8.432 7.68-2.56 20.224-11.136 12.16l-4.336-3.44c-6.656 4.592-14.448 6.784-24.816 6.784-22.512 0-48.24-15.504-48.24-46.976s25.584-47.456 48.24-47.456c23.776 0 47.072 15.984 47.072 47.456 0 12.16-3.088 21.136-8.832 29.056zm-7.696-29.056c0-20.336-15.984-30.688-30.56-30.688-15.728 0-31.216 10.336-31.216 30.688 0 15.504 13.168 30.208 31.216 30.208 4.592 0 9.072-1.152 13.552-2.304l-14.576-13.44c-6.784-8.192 3.968-19.84 12.528-12.288l14.464 14.448c3.184-4.464 4.592-9.968 4.592-16.624zm35.376-37.216c0-4.224 3.584-7.808 8.064-7.808 4.096 0 7.552 3.6 7.552 7.808v64.096h34.8c12.528 0 12.8 16.752 0 16.752h-42.336c-4.48 0-8.064-3.184-8.064-7.792v-73.056h-.016z" data-original="#ffffff"/><path d="M400 432H96v16h304c8.8 0 16-7.2 16-16v-16c0 8.8-7.2 16-16 16z" data-original="#cad1d8"/></svg><svg viewBox="0 0 261.76 226.69" id="vue" xmlns="http://www.w3.org/2000/svg"><path d="M161.096.001l-30.224 52.35L100.647.002H-.005L130.872 226.69 261.749 0z"/><path d="M161.096.001l-30.224 52.35L100.647.002H52.346l78.526 136.01L209.398.001z"/></svg><svg viewBox="0 0 600 600" id="webpack" xmlns="http://www.w3.org/2000/svg"><path d="M300 .1L565 150v299.9L300 599.8 35 449.9V150z"/><path d="M517.7 439.5L308.8 557.8v-92L439 394.1zm14.3-12.9V179.4l-76.4 44.1v159zM81.5 439.5l208.9 118.2v-92l-130.2-71.6zm-14.3-12.9V179.4l76.4 44.1v159zm8.9-263.2L290.4 42.2v89l-137.3 75.5-1.1.6zm446.9 0L308.8 42.2v89L446 206.8l1.1.6zM290.4 444.8L162 374.1V234.2l128.4 74.1zm18.4 0l128.4-70.6v-140l-128.4 74.1zM170.6 218l129-70.9L428.5 218l-128.9 74.4z"/></svg><svg viewBox="0 0 512 512" id="woo_commerce" xmlns="http://www.w3.org/2000/svg"><circle cx="256" cy="256" r="256"/><path d="M125.7 170.8h260.5c16.5 0 29.8 13.3 29.8 29.8V300c0 16.5-13.3 29.8-29.8 29.8h-93.4l12.8 31.4-56.4-31.4H125.8c-16.5 0-29.8-13.3-29.8-29.8v-99.4c-.1-16.4 13.2-29.8 29.7-29.8z"/><path d="M114.2 198c1.8-2.5 4.6-3.8 8.2-4 6.6-.5 10.4 2.6 11.3 9.4 4 27.2 8.5 50.2 13.1 69.1l28.5-54.2c2.6-4.9 5.9-7.5 9.8-7.8 5.7-.4 9.2 3.3 10.7 10.9 3.3 17.3 7.4 32 12.4 44.5 3.4-33 9.1-56.8 17.2-71.5 2-3.6 4.8-5.5 8.6-5.7 3-.3 5.7.7 8.2 2.6s3.8 4.4 4 7.4c.1 2.3-.3 4.3-1.3 6.2-5.1 9.4-9.2 25.1-12.6 47-3.3 21.2-4.4 37.7-3.6 49.6.3 3.3-.3 6.1-1.6 8.6-1.6 2.9-3.9 4.4-6.9 4.7-3.4.3-6.9-1.3-10.3-4.8-12.1-12.4-21.7-30.8-28.7-55.4-8.5 16.7-14.7 29.1-18.7 37.5-7.7 14.7-14.2 22.2-19.6 22.6-3.5.3-6.5-2.7-9.1-9-6.6-17-13.8-50-21.5-98.7-.7-3.7.1-6.7 1.9-9zm279.6 20.4c-4.7-8.2-11.6-13.1-20.8-15.1-2.5-.5-4.8-.8-7-.8-12.5 0-22.6 6.5-30.6 19.5-6.8 11.1-10.1 23.3-10.1 36.7 0 10 2.1 18.6 6.2 25.8 4.7 8.2 11.6 13.1 20.8 15.1 2.5.5 4.8.8 7 .8 12.6 0 22.8-6.5 30.6-19.5 6.8-11.2 10.1-23.4 10.1-36.8.1-10.2-2.1-18.7-6.2-25.7zm-16.4 36c-1.8 8.6-5.1 15-9.9 19.3-3.8 3.4-7.3 4.8-10.5 4.2-3.1-.7-5.7-3.4-7.7-8.5-1.6-4-2.3-8.1-2.3-11.8 0-3.3.3-6.5.9-9.5 1.2-5.3 3.4-10.5 6.9-15.5 4.3-6.4 8.8-9 13.5-8.1 3.1.7 5.7 3.4 7.7 8.5 1.6 4 2.3 8.1 2.3 11.8 0 3.4-.3 6.6-.9 9.6zm-65.1-36c-4.7-8.2-11.7-13.1-20.8-15.1-2.5-.5-4.8-.8-7-.8-12.5 0-22.6 6.5-30.6 19.5-6.8 11.1-10.1 23.3-10.1 36.7 0 10 2.1 18.6 6.2 25.8 4.7 8.2 11.6 13.1 20.8 15.1 2.5.5 4.8.8 7 .8 12.6 0 22.8-6.5 30.6-19.5 6.8-11.2 10.1-23.4 10.1-36.8.1-10.2-2-18.7-6.2-25.7zm-16.5 36c-1.8 8.6-5.1 15-9.9 19.3-3.8 3.4-7.3 4.8-10.5 4.2-3.1-.7-5.7-3.4-7.7-8.5-1.6-4-2.3-8.1-2.3-11.8 0-3.3.3-6.5.9-9.5 1.2-5.3 3.4-10.5 6.9-15.5 4.3-6.4 8.8-9 13.5-8.1 3.1.7 5.7 3.4 7.7 8.5 1.6 4 2.3 8.1 2.3 11.8.2 3.4-.2 6.6-.9 9.6z"/></svg><svg viewBox="0 0 447.674 447.674" id="wordpress" xmlns="http://www.w3.org/2000/svg"><path d="M134.289 138.16h-24.722l67.399 190.521 37.732-107.825-29.254-82.696H159.36v-18.154h115.508v18.154h-27.049l67.398 190.521 24.227-69.234c31.781-88.702-26.048-116.333-26.048-136.129s16.048-35.843 35.843-35.843c1.071 0 2.111.058 3.13.153-33.541-31.663-78.768-51.08-128.534-51.08-65.027 0-122.306 33.146-155.884 83.458h66.336v18.154h.002zm-97.741 85.677c0 71.704 40.302 133.986 99.483 165.458l-84.52-238.919c-9.628 22.556-14.963 47.385-14.963 73.461zm350.285-92.29c2.679 15.774 1.868 33.503-2.243 51.301h.745l-2.832 8.092c-1.678 5.843-3.791 11.82-6.191 17.693l-64.444 180.541c59.057-31.51 99.256-93.725 99.256-165.338 0-33.557-8.834-65.048-24.291-92.289z" data-original="#00769d"/><path d="M166.075 402.033c18.195 5.894 37.603 9.091 57.762 9.091 19.228 0 37.777-2.902 55.239-8.285l-54.784-154.862-58.217 154.056z" data-original="#00769d"/><path d="M382.113 65.56C339.836 23.283 283.625 0 223.836 0S107.837 23.283 65.56 65.56 0 164.047 0 223.837c0 59.789 23.283 115.999 65.56 158.276s98.488 65.56 158.277 65.56 115.999-23.283 158.277-65.56c42.277-42.277 65.56-98.488 65.56-158.276-.001-59.79-23.284-116-65.561-158.277zM223.836 431.883c-114.717 0-208.046-93.329-208.046-208.046S109.119 15.79 223.836 15.79s208.046 93.33 208.046 208.047-93.328 208.046-208.046 208.046z" data-original="#00769d"/></svg></svg>