<svg xmlns="http://www.w3.org/2000/svg" version="1.1" xmlns:xlink="http://www.w3.org/1999/xlink" xmlns:svgjs="http://svgjs.com/svgjs" width="512" height="512" x="0" y="0" viewBox="0 0 512 512" style="enable-background:new 0 0 512 512" xml:space="preserve" class=""><g><path d="M256 0C114.62 0 0 114.62 0 256s114.62 256 256 256 256-114.62 256-256S397.38 0 256 0zm118.66 174.1c-3.85 40.48-20.52 138.71-29 184.05-3.59 19.19-10.66 25.62-17.5 26.25-14.86 1.37-26.15-9.83-40.55-19.27-22.53-14.77-35.26-23.96-57.13-38.37-25.28-16.66-8.89-25.81 5.51-40.77 3.77-3.92 69.27-63.5 70.54-68.9.16-.68.31-3.2-1.19-4.53s-3.71-.87-5.3-.51c-2.26.51-38.26 24.3-107.98 71.37-10.22 7.02-19.47 10.43-27.77 10.26-9.14-.2-26.72-5.17-39.79-9.42-16.03-5.21-28.77-7.97-27.66-16.82.57-4.61 6.92-9.32 19.04-14.14 74.63-32.52 124.39-53.95 149.29-64.31 71.099-29.569 85.87-34.71 95.499-34.88 12.062-.213 14.973 9.743 13.991 19.99z" style="fill-rule:evenodd;clip-rule:evenodd;" fill="#CFE741" data-original="#000000" class="" opacity="1"></path></g></svg>